{
  "accessors": [
    {
      "bufferView": 2,
      "componentType": 5126,
      "count": 2284,
      "max": [
        1.9950190782546997,
        0.6920000314712524,
        0.11000001430511475
      ],
      "min": [
        0.007000010460615158,
        -0.019017092883586884,
        -0.11000001430511475
      ],
      "type": "VEC3"
    },
    {
      "bufferView": 2,
      "byteOffset": 27408,
      "componentType": 5126,
      "count": 2284,
      "max": [
        0.999998927116394,
        0.9999967813491821,
        1.0
      ],
      "min": [
        -0.9999951124191284,
        -0.9999996423721313,
        -1.0
      ],
      "type": "VEC3"
    },
    {
      "bufferView": 1,
      "componentType": 5126,
      "count": 2284,
      "max": [
        1.0,
        1.0
      ],
      "min": [
        0.0,
        0.0
      ],
      "type": "VEC2"
    },
    {
      "bufferView": 0,
      "componentType": 5125,
      "count": 4488,
      "type": "SCALAR"
    }
  ],
  "asset": {
    "extras": {
      "author": "tacool (https://sketchfab.com/tacool)",
      "license": "CC-BY-4.0 (http://creativecommons.org/licenses/by/4.0/)",
      "source": "https://sketchfab.com/3d-models/taco-text-1ee9b3abe27446f995ce9ede797ae657",
      "title": "taco text"
    },
    "generator": "Sketchfab-12.29.0",
    "version": "2.0"
  },
  "bufferViews": [
    {
      "buffer": 0,
      "byteLength": 17952,
      "name": "floatBufferViews",
      "target": 34963
    },
    {
      "buffer": 0,
      "byteLength": 18272,
      "byteOffset": 17952,
      "byteStride": 8,
      "name": "floatBufferViews",
      "target": 34962
    },
    {
      "buffer": 0,
      "byteLength": 54816,
      "byteOffset": 36224,
      "byteStride": 12,
      "name": "floatBufferViews",
      "target": 34962
    }
  ],
  "buffers": [
    {
      "byteLength": 91040,
      "uri": "scene.bin"
    }
  ],
  "materials": [
    {
      "doubleSided": true,
      "name": "Scene_-_Root",
      "pbrMetallicRoughness": {
        "metallicFactor": 0.0,
        "roughnessFactor": 0.6
      }
    }
  ],
  "meshes": [
    {
      "name": "Text__0",
      "primitives": [
        {
          "attributes": {
            "NORMAL": 1,
            "POSITION": 0,
            "TEXCOORD_0": 2
          },
          "indices": 3,
          "material": 0,
          "mode": 4
        }
      ]
    }
  ],
  "nodes": [
    {
      "children": [
        1
      ],
      "matrix": [
        1.0,
        0.0,
        0.0,
        0.0,
        0.0,
        2.220446049250313e-16,
        -1.0,
        0.0,
        0.0,
        1.0,
        2.220446049250313e-16,
        0.0,
        0.0,
        0.0,
        0.0,
        1.0
      ],
      "name": "Sketchfab_model"
    },
    {
      "children": [
        2
      ],
      "matrix": [
        0.009999999776482582,
        0.0,
        0.0,
        0.0,
        0.0,
        0.0,
        0.009999999776482582,
        0.0,
        0.0,
        -0.009999999776482582,
        0.0,
        0.0,
        0.0,
        0.0,
        0.0,
        1.0
      ],
      "name": "taco text.fbx"
    },
    {
      "children": [
        3,
        5
      ],
      "name": "RootNode"
    },
    {
      "children": [
        4
      ],
      "matrix": [
        3.139164788112936e-05,
        -1.5777218104420236e-28,
        -99.99999999999507,
        0.0,
        2.3781776447758715e-12,
        100.0,
        7.465491518164513e-19,
        0.0,
        99.99999999999507,
        -2.3781776447759886e-12,
        3.139164788112936e-05,
        0.0,
        0.4304051399230957,
        -14.922736167907715,
        1614.004150390625,
        1.0
      ],
      "name": "Camera"
    },
    {
      "name": "Object_4"
    },
    {
      "children": [
        6
      ],
      "matrix": [
        152.99383544921875,
        0.0,
        0.0,
        0.0,
        0.0,
        152.9938354492186,
        6.687572403254798e-06,
        0.0,
        0.0,
        -6.687572403254798e-06,
        152.9938354492186,
        0.0,
        -158.25765991210938,
        -56.72928237915039,
        0.0,
        1.0
      ],
      "name": "Text"
    },
    {
      "mesh": 0,
      "name": "Text__0"
    }
  ],
  "scene": 0,
  "scenes": [
    {
      "name": "Sketchfab_Scene",
      "nodes": [
        0
      ]
    }
  ]
}
